/* XPM */
static char *b11ecae537d2460bbba55ed071bb7330y0QRk49T2Hfaf2iJ[] = {
/* columns rows colors chars-per-pixel */
"50 50 17 1 ",
"  c #37446E",
". c #232B5D",
"X c #020204",
"o c #212858",
"O c #2F3B68",
"+ c #10132A",
"@ c #36002A",
"# c #556989",
"$ c #435379",
"% c #180114",
"& c #2E0F3E",
"* c #7692AA",
"= c #3E4D56",
"- c #3C4B73",
"; c #84A2B5",
": c #8EAEC3",
"> c #181D35",
/* pixels */
"XXXXXXXXXXXXXXXXXXXXXXXXXXXXXXXXXXXXXXXXXXXXXXXXXX",
"X%o============================================.%X",
"X>$*;;;;;;;;;;;;;;;;;;;;;;;;;;;;;;;;;;;;;;;;;;*$>X",
"X+ #*::::::::::::::::::::::::::::::::::::::::*# +X",
"X+.-#****************************************#-.+X",
"X+o. ######################################## .o+X",
"X+o..O-$$$$$$$$$$$$$$$$$$$$$$$$$$$$$$$$$$$$-O..o+X",
"X+o.o.O                                    O.o.o+X",
"X+o.o.O                                    O.o.o+X",
"X+o.o.O   -$$$-                    -$$$-   O.o.o+X",
"X+o.o.O   -###-                    -###-   O.o.o+X",
"X+o.o.O   -###-                    -###-   O.o.o+X",
"X+o.o.O    ---                       --    O.o.o+X",
"X+o.o.O   OO.OO                    OO.OO   O.o.o+X",
"X+o.o.O    OOO                      OOO    O.o.o+X",
"X+o.o.O                                    O.o.o+X",
"X+o.o.O                                    O.o.o+X",
"X+o.o.O                                    O.o.o+X",
"X+o.o.O                                    O.o.o+X",
"X+o.o.O                                    O.o.o+X",
"X+o.o.O                                    O.o.o+X",
"X+o.o.O                                    O.o.o+X",
"X+o.o.O                                    O.o.o+X",
"X+o.o.O                                    O.o.o+X",
"X+o.o.O                                    O.o.o+X",
"X+o.o.O                                    O.o.o+X",
"X+o.o.O                                    O.o.o+X",
"X+o.o.O                                    O.o.o+X",
"X+o.o.O                                    O.o.o+X",
"X+o.o.O                                    O.o.o+X",
"X+o.o.O                                    O.o.o+X",
"X+o.o.O                                    O.o.o+X",
"X+o.o.O                                    O.o.o+X",
"X+o.o.O                                    O.o.o+X",
"X+o.o.O                                    O.o.o+X",
"X+o.o.O    ---                      ---    O.o.o+X",
"X+o.o.O   -$#$-                    -$#$-   O.o.o+X",
"X+o.o.O   -###-                    -###-   O.o.o+X",
"X+o.o.O   -$#$-                    -$#$-   O.o.o+X",
"X+o.o.O    OOO                      OOO    O.o.o+X",
"X+o.o.O    O.O                      O.O    O.o.o+X",
"X+o.o.O      O                        O    O.o.o+X",
"X+o.o.O                                    O.o.o+X",
"X+o.o.OOOOOOOOOOOOOOOOOOOOOOOOOOOOOOOOOOOOOO.o.o+X",
"X+o.oo......................................oo.o+X",
"X+o.o&&&&&&&&&&&&&&&&&&&&&&&&&&&&&&&&&&&&&&&&o.o+X",
"X+oo&@@@@@@@@@@@@@@@@@@@@@@@@@@@@@@@@@@@@@@@@&oo+X",
"X+o&@@@@@@@@@@@@@@@@@@@@@@@@@@@@@@@@@@@@@@@@@@&o+X",
"XX+%%%%%%%%%%%%%%%%%%%%%%%%%%%%%%%%%%%%%%%%%%%%+XX",
"XXXXXXXXXXXXXXXXXXXXXXXXXXXXXXXXXXXXXXXXXXXXXXXXXX"
};
