/* XPM */
static char *_24e4b3720e44c7fadf9d3f3b6114100numJKnTiyj2R4mBl[] = {
/* columns rows colors chars-per-pixel */
"50 50 6 1 ",
"  c #222A5C",
". c #38022D",
"X c #2E1342",
"o c #242759",
"O c #2F3A67",
"+ c #2B1F4F",
/* pixels */
"..................................................",
"..XXXXXXXXXXXXXXXXXXXXXXXXXXXXXXXXXXXXXXXXXXXXXX..",
".XooooooooooooooooooooooooooooooooooooooooooooooX.",
".Xo                                            oX.",
".Xo                                            oX.",
".Xo                                            oX.",
".Xo   OOO                                OOO   oX.",
".Xo   OOOO                              OOOO   oX.",
".Xo   OOOOo                             OOOO   oX.",
".Xo   ++++                              ++++o  oX.",
".Xo  oX.X+                              +X.Xo  oX.",
".Xo   o++o                              o++o   oX.",
".Xo                                            oX.",
".Xo                                            oX.",
".Xo                                            oX.",
".Xo                                            oX.",
".Xo                                            oX.",
".Xo                                            oX.",
".Xo                                            oX.",
".Xo                                            oX.",
".Xo                                            oX.",
".Xo                                            oX.",
".Xo                                            oX.",
".Xo                                            oX.",
".Xo                                            oX.",
".Xo                                            oX.",
".Xo                                            oX.",
".Xo                                            oX.",
".Xo                                            oX.",
".Xo                                            oX.",
".Xo                                            oX.",
".Xo                                            oX.",
".Xo                                            oX.",
".Xo                                            oX.",
".Xo                                            oX.",
".Xo                                            oX.",
".Xo                                            oX.",
".Xo                                            oX.",
".Xo                                            oX.",
".Xo                                            oX.",
".Xo   OOO                                OO    oX.",
".Xo   OOOO                              OOOO   oX.",
".Xo   OOOO                              OOOO   oX.",
".Xo    ooo                               oo    oX.",
".Xo  oX.X+                              +X.Xo  oX.",
".Xo   +XX+                              +XX+   oX.",
".Xo                                            oX.",
".XooooooooooooooooooooooooooooooooooooooooooooooX.",
"..XXXXXXXXXXXXXXXXXXXXXXXXXXXXXXXXXXXXXXXXXXXXXX..",
".................................................."
};
